<svg width="163" height="176" viewBox="0 0 163 176" fill="none" xmlns="http://www.w3.org/2000/svg">
<path d="M111.56 76.3774H50.7091C50.0119 76.3774 49.4414 76.9939 49.4414 77.7474V146.59C49.4414 147.343 50.0119 147.96 50.7091 147.96H111.56C112.257 147.96 112.827 147.343 112.827 146.59V77.7474C112.827 76.9939 112.257 76.3774 111.56 76.3774ZM59.5831 87.3374H102.686V107.374H59.5831V87.3374ZM102.686 137H59.5831V116.964H102.686V137Z" fill="#171C28"/>
<path d="M67.1895 128.095C67.1895 129.548 67.7237 130.942 68.6747 131.97C69.6256 132.998 70.9154 133.575 72.2603 133.575C73.6052 133.575 74.895 132.998 75.846 131.97C76.7969 130.942 77.3312 129.548 77.3312 128.095C77.3312 126.642 76.7969 125.248 75.846 124.22C74.895 123.192 73.6052 122.615 72.2603 122.615C70.9154 122.615 69.6256 123.192 68.6747 124.22C67.7237 125.248 67.1895 126.642 67.1895 128.095ZM67.1895 97.6126C67.1895 99.066 67.7237 100.46 68.6747 101.488C69.6256 102.515 70.9154 103.093 72.2603 103.093C73.6052 103.093 74.895 102.515 75.846 101.488C76.7969 100.46 77.3312 99.066 77.3312 97.6126C77.3312 96.1592 76.7969 94.7653 75.846 93.7376C74.895 92.7099 73.6052 92.1326 72.2603 92.1326C70.9154 92.1326 69.6256 92.7099 68.6747 93.7376C67.7237 94.7653 67.1895 96.1592 67.1895 97.6126Z" fill="#171C28"/>
<path d="M128.578 63.1741C121.321 42.4699 102.828 27.7424 81.1659 27.7424C59.5038 27.7424 41.011 42.4528 33.7533 63.1569C20.1095 67.0443 10.0628 80.5217 10.1421 96.5164C10.2371 114.395 23.0728 128.934 39.2362 130.492C39.9809 130.561 40.6148 129.927 40.6148 129.122V118.779C40.6148 118.094 40.1394 117.512 39.5056 117.426C35.227 116.844 31.1862 114.823 28.0803 111.518C24.2771 107.494 22.1854 102.082 22.1854 96.3452C22.1854 91.5502 23.6274 87.0292 26.3371 83.2617C28.9835 79.5969 32.7074 76.9426 36.8117 75.7781L42.8175 74.0656L45.0201 67.7807C46.3829 63.8762 48.2845 60.2114 50.6773 56.9063C53.0384 53.6183 55.8433 50.7413 58.9809 48.3438C65.4937 43.3947 73.1634 40.7746 81.1659 40.7746C89.1684 40.7746 96.838 43.3947 103.351 48.3609C106.504 50.7584 109.293 53.6354 111.654 56.9234C114.047 60.2286 115.949 63.8933 117.312 67.7978L119.498 74.0656L125.488 75.7781C134.077 78.2441 140.083 86.6867 140.083 96.3281C140.083 102.082 137.991 107.476 134.188 111.501C131.098 114.789 127.073 116.827 122.795 117.409C122.161 117.495 121.701 118.077 121.701 118.762V129.122C121.701 129.927 122.351 130.561 123.096 130.492C139.211 128.917 152.015 114.395 152.126 96.5507C152.221 80.5559 142.191 67.0786 128.578 63.1741Z" fill="#171C28" fill-opacity="0.9"/>
</svg>
