<svg width="147" height="151" viewBox="0 0 147 151" fill="none" xmlns="http://www.w3.org/2000/svg">
<path d="M15.5674 92.6764H131.753V57.7548H15.5674V92.6764ZM38.8045 68.4999C43.3897 68.4999 47.1035 71.5052 47.1035 75.2156C47.1035 78.926 43.3897 81.9313 38.8045 81.9313C34.2193 81.9313 30.5055 78.926 30.5055 75.2156C30.5055 71.5052 34.2193 68.4999 38.8045 68.4999ZM15.5674 138.343H131.753V103.421H15.5674V138.343ZM38.8045 114.167C43.3897 114.167 47.1035 117.172 47.1035 120.882C47.1035 124.593 43.3897 127.598 38.8045 127.598C34.2193 127.598 30.5055 124.593 30.5055 120.882C30.5055 117.172 34.2193 114.167 38.8045 114.167ZM15.5674 47.0097H131.753V12.0881H15.5674V47.0097ZM38.8045 22.8332C43.3897 22.8332 47.1035 25.8385 47.1035 29.5489C47.1035 33.2593 43.3897 36.2646 38.8045 36.2646C34.2193 36.2646 30.5055 33.2593 30.5055 29.5489C30.5055 25.8385 34.2193 22.8332 38.8045 22.8332Z" fill="#1A1A1A" fill-opacity="0.15"/>
<path d="M30.5049 75.2156C30.5049 76.9967 31.3792 78.7049 32.9356 79.9643C34.492 81.2237 36.6028 81.9313 38.8039 81.9313C41.0049 81.9313 43.1158 81.2237 44.6721 79.9643C46.2285 78.7049 47.1028 76.9967 47.1028 75.2156C47.1028 73.4345 46.2285 71.7263 44.6721 70.4669C43.1158 69.2075 41.0049 68.4999 38.8039 68.4999C36.6028 68.4999 34.492 69.2075 32.9356 70.4669C31.3792 71.7263 30.5049 73.4345 30.5049 75.2156ZM30.5049 120.882C30.5049 122.663 31.3792 124.372 32.9356 125.631C34.492 126.89 36.6028 127.598 38.8039 127.598C41.0049 127.598 43.1158 126.89 44.6721 125.631C46.2285 124.372 47.1028 122.663 47.1028 120.882C47.1028 119.101 46.2285 117.393 44.6721 116.134C43.1158 114.874 41.0049 114.167 38.8039 114.167C36.6028 114.167 34.492 114.874 32.9356 116.134C31.3792 117.393 30.5049 119.101 30.5049 120.882ZM30.5049 29.5489C30.5049 31.33 31.3792 33.0382 32.9356 34.2976C34.492 35.5571 36.6028 36.2646 38.8039 36.2646C41.0049 36.2646 43.1158 35.5571 44.6721 34.2976C46.2285 33.0382 47.1028 31.33 47.1028 29.5489C47.1028 27.7678 46.2285 26.0597 44.6721 24.8002C43.1158 23.5408 41.0049 22.8333 38.8039 22.8333C36.6028 22.8333 34.492 23.5408 32.9356 24.8002C31.3792 26.0597 30.5049 27.7678 30.5049 29.5489Z" fill="#171C28" fill-opacity="0.9"/>
<path d="M140.052 0H7.26808C3.59579 0 0.628906 2.40086 0.628906 5.37255V145.059C0.628906 148.03 3.59579 150.431 7.26808 150.431H140.052C143.724 150.431 146.691 148.03 146.691 145.059V5.37255C146.691 2.40086 143.724 0 140.052 0ZM131.753 138.343H15.5671V103.422H131.753V138.343ZM131.753 92.6765H15.5671V57.7549H131.753V92.6765ZM131.753 47.0098H15.5671V12.0882H131.753V47.0098Z" fill="#171C28" fill-opacity="0.9"/>
</svg>
