<svg width="221" height="221" viewBox="0 0 221 221" fill="none" xmlns="http://www.w3.org/2000/svg">
<path opacity="0.5" d="M27.625 202.583H193.375" stroke="#171C28" stroke-width="1.5" stroke-linecap="round" stroke-linejoin="round"/>
<path d="M27.625 101.292C27.625 92.6101 27.625 88.2691 30.322 85.572C33.0192 82.875 37.36 82.875 46.0417 82.875C54.7234 82.875 59.0642 82.875 61.7613 85.572C64.4583 88.2691 64.4583 92.6101 64.4583 101.292V156.542C64.4583 165.223 64.4583 169.564 61.7613 172.261C59.0642 174.958 54.7234 174.958 46.0417 174.958C37.36 174.958 33.0192 174.958 30.322 172.261C27.625 169.564 27.625 165.223 27.625 156.542V101.292Z" stroke="#171C28" stroke-width="1.5"/>
<path d="M92.083 64.4584C92.083 55.7767 92.083 51.4359 94.7801 48.7388C97.4773 46.0417 101.818 46.0417 110.5 46.0417C119.181 46.0417 123.522 46.0417 126.219 48.7388C128.916 51.4359 128.916 55.7767 128.916 64.4584V156.542C128.916 165.223 128.916 169.564 126.219 172.261C123.522 174.958 119.181 174.958 110.5 174.958C101.818 174.958 97.4773 174.958 94.7801 172.261C92.083 169.564 92.083 165.223 92.083 156.542V64.4584Z" stroke="#171C28" stroke-width="1.5"/>
<path d="M156.542 36.8334C156.542 28.1517 156.542 23.8109 159.239 21.1138C161.936 18.4167 166.277 18.4167 174.959 18.4167C183.64 18.4167 187.981 18.4167 190.678 21.1138C193.375 23.8109 193.375 28.1517 193.375 36.8334V156.542C193.375 165.223 193.375 169.564 190.678 172.261C187.981 174.958 183.64 174.958 174.959 174.958C166.277 174.958 161.936 174.958 159.239 172.261C156.542 169.564 156.542 165.223 156.542 156.542V36.8334Z" stroke="#171C28" stroke-width="1.5"/>
</svg>
