<svg width="221" height="221" viewBox="0 0 221 221" fill="none" xmlns="http://www.w3.org/2000/svg">
<g clip-path="url(#clip0_283_210)">
<path d="M96.0751 111.711L102.912 104.878L90.5133 92.4747L83.6807 99.3164C79.7027 96.6829 75.2643 94.7169 70.522 93.483V83.2617H48.5095V93.483C43.6613 94.7353 39.1216 96.7565 35.0791 99.4776L28.5182 92.9167L16.1146 105.311L22.786 111.983C20.2353 115.891 18.32 120.238 17.1229 124.874H6.90625V146.864H17.1183C18.3476 151.611 20.3136 156.063 22.9518 160.041L16.1146 166.878L28.5136 179.268L35.3508 172.435C39.338 175.073 43.7948 177.049 48.5509 178.278V188.481H70.4714V178.278C75.1216 177.081 79.4817 175.156 83.3999 172.61L90.5087 179.714L102.908 167.325L95.9048 160.317C98.6397 156.252 100.665 151.68 101.918 146.808H112.116V124.952H101.918C100.698 120.183 98.7271 115.707 96.0751 111.711ZM59.5135 153.908C49.5546 153.908 41.4789 145.832 41.4789 135.874C41.4789 125.915 49.5546 117.839 59.5135 117.839C69.4723 117.839 77.548 125.915 77.548 135.874C77.548 145.832 69.4723 153.908 59.5135 153.908Z" fill="#171C28" stroke="#171C28"/>
<path d="M38.5595 26.1147V22.0861V17.7674H125.537H130.353H130.684V22.1459V26.833V55.1762H143.88H163.719H167.766V78.6575V87.8658V110.5H185.741V87.8658V78.6575V55.1762V43.3803L142.48 0.11499H130.684H20.5664V81.7975H38.5595V26.1147Z" fill="#171C28" stroke="#171C28"/>
<path d="M165.86 124.538C139.225 124.538 117.627 146.132 117.627 172.771C117.627 199.411 139.225 221 165.86 221C192.495 221 214.093 199.406 214.093 172.767C214.093 146.127 192.5 124.538 165.86 124.538ZM166.569 207.201C147.531 207.201 132.102 191.768 132.102 172.73C132.102 153.692 147.536 138.263 166.569 138.263C185.612 138.263 201.041 153.696 201.041 172.73C201.041 191.768 185.607 207.201 166.569 207.201Z" fill="#171C28" stroke="#171C28"/>
<path d="M161.109 165.976V175.677V197.984H170.82V175.677H189.029V165.976H170.82H161.109Z" fill="#171C28" stroke="#171C28"/>
</g>
<defs>
<clipPath id="clip0_283_210">
<rect width="221" height="221" fill="white"/>
</clipPath>
</defs>
</svg>
