<svg width="198" height="185" viewBox="0 0 198 185" fill="none" xmlns="http://www.w3.org/2000/svg">
<path d="M169.691 20.1892H28.3812C24.9829 20.1892 22.2373 22.767 22.2373 25.9576V158.63C22.2373 161.821 24.9829 164.399 28.3812 164.399H169.691C173.089 164.399 175.834 161.821 175.834 158.63V25.9576C175.834 22.767 173.089 20.1892 169.691 20.1892ZM162.011 151.42H36.061V33.1681H162.011V151.42Z" fill="#171C28" fill-opacity="0.9"/>
<path d="M36.0605 151.42H162.01V33.1682H36.0605V151.42ZM101.243 111.222H136.763C137.55 111.222 138.203 111.87 138.203 112.664V121.316C138.203 122.109 137.55 122.758 136.763 122.758H101.243C100.456 122.758 99.8033 122.109 99.8033 121.316V112.664C99.8033 111.87 100.456 111.222 101.243 111.222ZM59.8681 110.014C59.8681 109.599 60.0793 109.185 60.4249 108.914L81.5061 92.294L60.4249 75.6739C60.2484 75.5431 60.1064 75.3758 60.0098 75.1851C59.9133 74.9944 59.8648 74.7854 59.8681 74.5743V63.2719C59.8681 62.0461 61.3849 61.3792 62.3833 62.1723L99.2466 91.1764C99.9953 91.7533 99.9953 92.8168 99.2466 93.3936L62.3833 122.416C61.3849 123.209 59.8681 122.542 59.8681 121.316V110.014Z" fill="#1A1A1A" fill-opacity="0.15"/>
<path d="M62.3833 122.416L99.2467 93.3935C99.9954 92.8166 99.9954 91.7531 99.2467 91.1763L62.3833 62.1722C62.1608 61.9945 61.8886 61.8805 61.5992 61.8437C61.3097 61.807 61.015 61.849 60.7502 61.9648C60.4854 62.0805 60.2615 62.2652 60.1052 62.4969C59.9488 62.7286 59.8666 62.9975 59.8682 63.2718V74.5742C59.8682 75.0068 60.0602 75.4034 60.425 75.6738L81.5062 92.2939L60.425 108.914C60.2534 109.049 60.1148 109.217 60.0187 109.407C59.9226 109.597 59.8713 109.804 59.8682 110.014V121.316C59.8682 122.542 61.385 123.209 62.3833 122.416ZM99.8034 121.316C99.8034 122.109 100.456 122.758 101.243 122.758H136.763C137.55 122.758 138.203 122.109 138.203 121.316V112.663C138.203 111.87 137.55 111.221 136.763 111.221H101.243C100.456 111.221 99.8034 111.87 99.8034 112.663V121.316Z" fill="#171C28"/>
</svg>
